# xmcd
#
# Track frame offsets:
#	150
#	9450
#	24150
#	38250
#	50250
#	60750
#	73275
#	85875
#	97350
#	110700
#	121200
#	134250
#	146625
#	158400
#	171825
#	182925
#	198600
#	209175
#	220425
#	229275
#	238275
#	248700
#	260475
#	273150
#
# Disc length: 3894
#
# Revision: 5
# Processed by: cddbd v1.5.1PL0 Copyright (c) Steve Scherf et al.
# Submitted via: ExactAudioCopy v0.90b4
# Normalized: r3:TDELIM( - ),TSWAP
#
DISCID=630f3418
DTITLE=Time Life Music (Various Artist) - Country USA - 1967
DYEAR=1900
DGENRE=Country
TTITLE0=Tammy Wynette - Your Good Girl's Gonna Go Bad
TTITLE1=Porter Wagoner - The Cold Hard Facts Of Life
TTITLE2=Merle Haggard - Branded Man
TTITLE3=Loretta Lynn - If Your're Not Gone Too Long
TTITLE4=George Jones - Walk Through This World With Me
TTITLE5=Johnny Cash And June Carter - Jackson
TTITLE6=Marty Robbins - Tonight Carmen
TTITLE7=Wynn Stewart - It's Such A Pretty World Today
TTITLE8=Sonny James - It's The Little Things
TTITLE9=Buck Owens - Where Does The Good Times Go
TTITLE10=David Houston And Tammy Wynette - My Elusive Dreams
TTITLE11=Glenn Campbell - By The Time I Get To Phoenix
TTITLE12=Johnny Cash And June Carter - Long-Legged Guitar Pickin' Man
TTITLE13=Merle Haggard - The Fugitive
TTITLE14=George Jones - I Can't Get There From Here
TTITLE15=Red Sovine - Phantom 309
TTITLE16=George Hamilton IV - Break My Mind
TTITLE17=Willie Nelson - The Party's Over
TTITLE18=Buck Owens - Sam's Place
TTITLE19=Johnny Cash - Rosanna's Going Wild
TTITLE20=Charley Pride - Does My Ring Hurt Your Finger
TTITLE21=Tammy Wynette - I Don't Wanna Play House
TTITLE22=Merle Haggard - Sing Me Back Home
TTITLE23=Bobbie Gentry - Ode To Billie Joe
EXTD=
EXTT0=Tammy Wynette
EXTT1=Porter Wagoner
EXTT2=Merle Haggard
EXTT3=Loretta Lynn
EXTT4=George Jones
EXTT5=Johnny Cash and June Carter
EXTT6=Marty Robbins
EXTT7=Wynn Stewart
EXTT8=Sonny James
EXTT9=Buck Owens
EXTT10=David Houston and Tammy Wynette
EXTT11=Glen Campbell
EXTT12=Johnny Cash and June Carter
EXTT13=Merle Haggard
EXTT14=George Jones
EXTT15=Red Sovine
EXTT16=George Hamilton IV
EXTT17=Willie Nelson
EXTT18=Buck Owens
EXTT19=Johnny Cash
EXTT20=Charley Pride
EXTT21=Tammy Wynette
EXTT22=Merle Haggard
EXTT23=Bobbie Gentry
PLAYORDER=
